<svg id="Capa_1" data-name="Capa 1" xmlns="http://www.w3.org/2000/svg" viewBox="0 0 48 48"><defs><style>.cls-1{fill:none;stroke:#D7263D;stroke-miterlimit:10;stroke-width:1.5px;}</style></defs><title>gym-icon</title><rect class="cls-1" x="10.57" y="8.03" width="26.86" height="18.19" rx="1" ry="1"/><path class="cls-1" d="M16.77,18.38H20a1,1,0,0,1,1,1v6.84a0,0,0,0,1,0,0H15.77a0,0,0,0,1,0,0V19.38A1,1,0,0,1,16.77,18.38Z"/><line class="cls-1" x1="9" y1="35.75" x2="39" y2="35.75"/><rect class="cls-1" x="9.43" y="33.83" width="8.44" height="3.85" rx="0.82" ry="0.82" transform="translate(49.4 22.1) rotate(90)"/><rect class="cls-1" x="30.13" y="33.83" width="8.44" height="3.85" rx="0.82" ry="0.82" transform="translate(70.1 1.4) rotate(90)"/><line class="cls-1" x1="10.57" y1="11.78" x2="37.43" y2="11.78"/></svg>