<?xml version="1.0" standalone="no"?>
<!DOCTYPE svg PUBLIC "-//W3C//DTD SVG 20010904//EN"
 "http://www.w3.org/TR/2001/REC-SVG-20010904/DTD/svg10.dtd">
<svg version="1.0" xmlns="http://www.w3.org/2000/svg"
 width="1906.000000pt" height="1906.000000pt" viewBox="0 0 1906.000000 1906.000000"
 preserveAspectRatio="xMidYMid meet">
<metadata>
Created by potrace 1.11, written by Peter Selinger 2001-2013
</metadata>
<g transform="translate(0.000000,1906.000000) scale(0.100000,-0.100000)"
fill="#000000" stroke="none">
<path d="M476 14917 c-27 -20 -34 -75 -19 -147 8 -36 15 -74 17 -85 1 -11 8
-29 13 -40 6 -11 11 -22 11 -25 1 -5 11 -36 20 -60 3 -8 6 -17 6 -20 11 -49
170 -308 227 -371 13 -15 47 -53 74 -84 110 -127 247 -254 417 -387 51 -40
104 -83 118 -95 14 -13 28 -23 32 -23 3 0 13 -6 20 -13 7 -7 29 -24 48 -37 42
-29 76 -60 67 -60 -8 0 -61 23 -67 30 -3 3 -54 29 -115 59 -60 30 -153 82
-205 116 -52 34 -133 86 -180 115 -190 117 -614 400 -618 411 -2 5 -10 9 -18
9 -8 0 -14 5 -14 10 0 6 -7 10 -15 10 -8 0 -15 4 -15 8 0 5 -24 21 -54 36 -46
23 -58 26 -76 16 -19 -10 -21 -18 -17 -47 6 -33 50 -132 79 -178 120 -185 229
-310 378 -430 34 -27 68 -56 76 -63 8 -7 14 -10 14 -6 0 4 10 -1 23 -12 42
-38 162 -107 324 -185 88 -44 164 -79 167 -79 3 0 33 -13 66 -29 33 -16 60
-28 60 -26 0 2 40 -14 89 -35 50 -21 92 -35 95 -32 3 3 6 -1 6 -8 0 -7 3 -11
6 -7 4 3 22 0 40 -8 19 -8 34 -12 34 -10 0 4 15 0 95 -31 11 -4 25 -8 30 -10
22 -5 65 -24 65 -28 0 -2 -17 -2 -37 0 -21 3 -51 7 -68 9 -101 12 -130 17
-140 23 -5 3 -21 7 -36 8 -39 3 -91 13 -126 23 -18 5 -33 7 -33 4 0 -3 -6 -1
-12 4 -7 6 -20 11 -28 11 -23 2 -107 17 -120 22 -3 1 -9 2 -14 1 -4 -1 -13 2
-20 7 -6 5 -29 13 -51 17 -45 9 -54 12 -57 15 -2 1 -10 3 -18 5 -8 2 -49 13
-90 25 -109 30 -113 31 -135 35 -19 4 -34 7 -85 20 -71 18 -134 28 -178 28
-95 1 -66 -136 55 -257 160 -160 493 -321 853 -412 36 -9 69 -19 75 -22 5 -3
21 -7 35 -9 33 -4 46 -7 96 -21 23 -7 54 -14 70 -16 33 -6 88 -15 124 -22 14
-3 39 -7 55 -10 17 -2 41 -8 55 -11 14 -4 32 -8 40 -9 70 -12 140 -32 138 -39
-4 -12 -17 -13 -198 -20 -80 -3 -188 -7 -240 -10 -123 -6 -297 -13 -435 -19
-278 -12 -311 -19 -345 -66 -15 -21 -19 -38 -15 -62 22 -128 180 -317 363
-437 42 -28 82 -55 89 -61 7 -5 15 -10 18 -10 4 0 30 -11 58 -24 57 -27 107
-48 122 -51 6 -2 31 -10 57 -19 26 -8 62 -18 80 -21 18 -3 40 -8 48 -10 88
-25 334 -37 445 -21 28 4 65 9 84 12 18 2 37 7 42 10 5 3 9 1 9 -3 0 -5 -17
-16 -37 -25 -126 -52 -223 -89 -239 -92 -37 -8 -69 -24 -88 -44 -21 -25 -18
-73 10 -142 18 -47 107 -194 146 -244 29 -36 144 -154 179 -182 41 -33 143
-101 153 -102 5 0 12 -5 15 -11 11 -17 202 -107 296 -140 115 -39 246 -71 304
-76 25 -2 54 -6 64 -10 26 -11 300 0 304 12 2 5 16 8 31 7 15 -1 52 7 82 17
30 9 70 21 90 24 l35 7 -30 -23 c-16 -13 -32 -26 -35 -29 -3 -3 -25 -21 -50
-40 -25 -19 -47 -37 -50 -40 -3 -3 -21 -16 -40 -29 -19 -14 -39 -30 -43 -38
-4 -7 -12 -13 -16 -13 -5 0 -58 -37 -117 -81 -60 -45 -120 -86 -134 -92 -64
-29 -80 -74 -47 -130 25 -42 136 -158 160 -166 6 -2 18 -10 26 -18 69 -69 371
-257 581 -361 41 -20 77 -40 80 -43 5 -6 246 -110 264 -114 6 -1 18 -5 27 -9
9 -4 29 -9 45 -11 16 -2 29 -4 29 -5 0 -4 62 -11 105 -12 49 -2 97 4 175 22
64 15 67 16 85 23 8 3 35 12 60 20 79 26 174 62 190 72 8 5 17 10 20 11 3 0
17 6 33 12 95 41 97 35 9 -30 -31 -23 -61 -47 -67 -53 -27 -32 -209 -177 -243
-194 -67 -34 -68 -62 -6 -130 38 -42 210 -171 228 -171 4 0 25 -12 49 -27 23
-14 48 -26 54 -26 7 0 13 -4 13 -9 0 -4 7 -8 15 -8 8 0 30 -9 50 -20 19 -11
38 -20 43 -21 4 -1 12 -3 17 -5 6 -2 42 -14 80 -28 39 -13 84 -27 100 -31 53
-12 70 -16 95 -21 14 -3 32 -7 41 -10 76 -23 352 -23 509 0 84 13 115 18 121
22 4 2 24 6 45 10 22 3 44 10 50 15 6 5 14 6 17 2 4 -3 13 -1 20 5 8 7 17 9
21 5 4 -4 11 -1 16 7 7 10 10 11 10 3 0 -13 -71 -63 -89 -63 -5 0 -11 -4 -13
-8 -4 -12 -123 -92 -136 -92 -6 0 -12 -4 -14 -8 -2 -7 -65 -43 -188 -109 -14
-7 -31 -13 -37 -13 -7 0 -13 -4 -13 -9 0 -5 -17 -15 -37 -22 -55 -17 -93 -60
-87 -96 16 -88 162 -242 277 -293 23 -10 45 -19 49 -20 4 -1 22 -6 40 -11 74
-23 207 -29 298 -15 25 4 56 9 70 10 53 7 233 61 271 82 15 7 35 15 45 17 28
5 115 45 244 111 63 33 138 70 165 84 28 14 52 28 55 31 14 18 178 111 195
111 6 0 -33 -37 -111 -105 -31 -27 -76 -69 -99 -91 -24 -23 -83 -74 -132 -115
-48 -40 -90 -76 -93 -79 -3 -3 -34 -30 -70 -60 -36 -30 -70 -59 -76 -65 -6 -5
-22 -17 -34 -25 -12 -8 -28 -20 -34 -25 -6 -6 -39 -33 -74 -60 -35 -28 -74
-59 -88 -71 -13 -11 -76 -58 -139 -105 -133 -98 -145 -114 -120 -157 15 -25
138 -110 170 -117 5 -1 18 -5 28 -8 62 -24 94 -29 172 -30 71 -1 153 9 189 23
14 5 26 7 26 4 0 -4 7 -1 15 6 8 7 15 10 15 7 0 -4 20 2 45 13 25 11 46 18 48
17 4 -4 182 86 185 95 2 4 9 8 15 8 7 0 75 42 152 93 99 65 171 123 244 195
98 95 141 122 141 87 0 -8 -53 -69 -117 -135 -65 -65 -138 -141 -163 -167 -56
-59 -244 -233 -285 -264 -37 -29 -76 -72 -70 -78 3 -2 0 -10 -5 -16 -15 -18
23 -61 62 -70 54 -12 237 -15 243 -4 4 5 11 7 16 3 21 -12 282 91 329 131 22
18 58 25 69 11 5 -6 7 -47 5 -91 -4 -87 8 -126 41 -132 60 -12 145 0 199 28
45 23 57 37 87 94 34 63 48 76 70 62 10 -6 19 -15 19 -19 0 -4 7 -16 15 -25 8
-10 44 -58 79 -108 36 -49 70 -95 76 -102 5 -7 10 -16 10 -22 0 -5 3 -11 8
-13 10 -5 52 -66 52 -77 0 -5 4 -11 8 -13 16 -7 165 -242 168 -265 2 -25 -27
-81 -96 -184 -24 -34 -36 -60 -30 -64 6 -4 8 -10 5 -15 -7 -11 23 -23 61 -25
60 -3 63 -19 20 -104 l-25 -50 43 -38 c40 -36 43 -45 29 -83 -4 -8 -7 -17 -7
-20 -1 -3 -29 -58 -64 -123 -34 -65 -62 -123 -62 -128 0 -5 -4 -9 -10 -9 -5 0
-10 -5 -10 -11 0 -7 -21 -53 -47 -103 -135 -262 -139 -276 -117 -401 3 -22 7
-50 7 -62 1 -13 4 -23 7 -23 3 0 6 -8 7 -17 0 -10 3 -27 6 -38 3 -11 11 -42
18 -70 24 -99 58 -133 116 -119 28 7 154 130 188 184 13 19 32 46 44 59 11 13
23 32 26 42 4 11 11 19 16 19 5 0 9 5 9 11 0 6 20 40 45 75 25 34 45 67 45 73
0 5 6 16 13 23 6 7 22 34 35 60 13 26 27 50 33 53 5 4 9 14 9 24 0 11 9 29 19
42 l19 24 -4 -30 c-7 -52 -10 -62 -45 -142 -11 -23 -19 -47 -19 -52 0 -6 -4
-11 -8 -11 -5 0 -15 -19 -22 -42 -8 -24 -20 -52 -26 -63 -7 -11 -13 -22 -13
-25 0 -31 -199 -428 -239 -475 -5 -6 -11 -15 -13 -20 -13 -29 -52 -85 -60 -85
-5 0 -9 -5 -9 -10 0 -6 -18 -34 -40 -63 -54 -70 -51 -66 -82 -113 -19 -29 -26
-51 -23 -75 2 -19 4 -34 5 -34 1 0 3 -11 6 -24 2 -13 27 -68 56 -123 52 -100
118 -177 191 -226 35 -23 41 -24 79 -13 65 20 194 158 319 341 48 71 64 97 75
120 4 8 10 17 13 20 3 3 19 30 34 60 16 30 56 109 90 175 76 146 121 259 153
380 32 120 57 201 65 211 7 9 24 11 52 7 23 -4 58 -6 78 -7 36 0 36 0 50 -60
7 -34 14 -63 14 -66 7 -29 19 -67 24 -75 3 -5 6 -15 7 -21 4 -24 54 -175 70
-211 9 -21 26 -58 37 -83 39 -87 209 -392 254 -458 76 -110 181 -239 231 -283
64 -56 105 -73 145 -59 36 12 108 75 153 135 34 45 112 193 117 221 1 11 5 24
8 29 17 32 -6 104 -51 156 -39 47 -120 160 -120 169 0 6 -4 10 -10 10 -5 0
-10 7 -10 15 0 8 -4 15 -8 15 -5 0 -17 17 -29 38 -11 20 -42 78 -70 127 -27
50 -66 124 -85 166 -59 122 -188 428 -188 444 0 7 -5 17 -11 20 -6 4 -8 13 -5
21 3 7 1 16 -5 19 -5 4 -7 10 -4 15 3 5 1 18 -4 28 -8 14 -6 19 4 19 8 0 18
-9 21 -20 3 -11 25 -59 47 -106 22 -47 40 -89 39 -93 -1 -5 3 -8 8 -8 6 0 10
-7 10 -15 0 -8 3 -15 8 -15 4 0 12 -8 17 -19 34 -65 46 -83 150 -239 44 -65
154 -175 192 -191 29 -12 36 -11 64 6 26 14 37 32 54 86 12 37 21 67 19 67 -1
0 1 14 6 32 5 17 12 47 15 67 3 20 8 48 10 61 11 51 6 148 -10 186 -8 21 -41
89 -73 150 -31 62 -92 180 -135 264 -43 84 -86 166 -96 184 -24 42 -19 63 25
101 36 32 36 32 24 71 -7 21 -19 49 -27 61 -23 34 -3 61 41 56 26 -2 40 2 55
18 22 24 28 10 -77 180 -25 41 -39 76 -38 91 4 36 380 595 408 606 4 2 8 9 8
15 0 7 9 18 20 25 18 11 22 8 46 -30 14 -24 32 -53 40 -65 25 -40 56 -62 108
-77 62 -19 145 -26 152 -14 3 4 9 6 14 3 4 -3 15 6 23 18 12 18 15 47 13 115
-2 51 1 93 6 93 4 1 14 2 21 3 6 1 23 -5 37 -14 39 -26 183 -96 215 -105 17
-4 35 -10 40 -12 31 -10 145 -33 175 -34 102 -5 229 29 223 60 -2 6 1 11 6 11
20 0 -5 47 -43 80 -172 150 -459 428 -531 514 -57 68 -62 79 -25 58 16 -9 30
-20 30 -24 0 -5 5 -8 11 -8 6 0 35 -20 63 -45 29 -25 58 -45 65 -45 6 0 11 -4
11 -8 0 -5 39 -35 88 -67 48 -32 92 -63 97 -69 23 -25 83 -65 89 -59 3 4 6 2
6 -3 0 -5 53 -36 118 -68 64 -33 129 -65 143 -72 14 -8 28 -11 31 -9 3 3 22
-2 42 -10 20 -9 56 -18 79 -22 23 -3 51 -9 62 -13 33 -12 181 -3 237 15 70 22
91 32 165 79 96 62 103 101 27 156 -19 14 -43 32 -54 40 -11 8 -36 26 -55 40
-20 14 -55 42 -78 62 -23 21 -45 38 -49 38 -5 0 -16 8 -26 17 -15 15 -59 51
-117 95 -53 41 -189 154 -215 178 -9 8 -38 33 -65 55 -84 68 -346 333 -335
340 5 3 10 3 10 -2 0 -4 23 -21 50 -38 28 -16 50 -33 50 -37 0 -4 5 -8 11 -8
6 0 25 -11 42 -24 31 -23 88 -56 172 -100 22 -12 42 -24 43 -28 2 -5 8 -8 14
-8 5 0 48 -18 94 -40 46 -22 95 -42 109 -46 14 -3 25 -10 25 -16 0 -5 5 -6 10
-3 6 4 16 2 23 -3 12 -10 157 -58 199 -66 13 -2 30 -7 38 -10 84 -31 365 -39
410 -11 6 4 23 9 37 11 86 16 262 158 308 249 11 22 23 42 26 45 10 9 3 59
-11 75 -7 8 -47 32 -89 52 -42 21 -78 40 -81 44 -7 8 -129 79 -136 79 -3 0
-18 9 -33 19 -15 11 -34 21 -42 23 -8 2 -16 5 -19 8 -6 6 -110 70 -114 70 -2
0 -48 27 -102 60 -54 33 -95 60 -91 60 4 0 36 -12 70 -27 55 -23 176 -59 232
-68 11 -2 20 -4 20 -5 0 -2 9 -4 20 -5 11 -2 36 -6 55 -10 19 -4 60 -8 90 -10
30 -2 57 -4 60 -6 12 -4 280 -3 280 1 0 3 10 6 23 7 20 2 106 15 117 18 3 1
23 5 45 10 50 11 47 10 65 18 21 8 93 27 104 26 5 0 12 4 15 10 4 6 16 12 26
14 40 8 229 99 256 123 8 8 20 14 25 14 6 0 26 11 45 25 19 14 45 33 59 42 14
9 51 43 83 75 47 47 57 63 54 85 -2 16 -12 33 -23 38 -24 13 -77 48 -84 55 -3
3 -25 21 -50 40 -25 19 -50 39 -56 45 -6 5 -39 35 -74 65 -34 30 -84 74 -109
98 l-46 44 65 -33 c36 -18 67 -36 70 -39 3 -4 30 -15 60 -25 30 -10 72 -26 93
-37 20 -10 37 -15 37 -11 0 4 5 2 12 -5 7 -7 22 -12 34 -12 13 0 26 -5 29 -10
4 -6 12 -10 18 -8 7 1 30 -4 51 -10 22 -6 43 -9 47 -6 4 2 10 0 13 -4 9 -14
141 -19 204 -8 17 3 46 8 63 11 17 3 36 8 42 12 7 4 17 8 22 9 6 1 24 8 40 15
17 7 33 13 38 14 4 2 9 4 12 5 3 1 8 3 13 4 4 1 22 10 39 19 18 10 35 17 38
17 3 0 33 14 68 32 34 18 65 31 70 30 4 -1 7 3 7 8 0 6 6 10 13 10 6 0 68 32
137 71 69 39 141 80 160 91 65 37 255 166 283 192 15 14 30 26 33 26 7 0 26
17 85 75 62 61 103 127 94 154 -8 25 -41 62 -58 65 -12 1 -47 25 -84 56 -7 5
-15 10 -19 10 -3 0 -21 12 -39 28 -17 15 -42 34 -55 42 -46 31 -198 146 -246
187 l-49 43 35 -10 c19 -6 60 -12 90 -15 30 -2 79 -8 109 -13 127 -22 353 -8
471 28 19 6 46 13 60 16 44 8 154 46 169 58 8 6 16 10 18 8 2 -1 20 5 41 14
20 9 43 18 50 20 7 1 25 10 40 20 15 10 34 19 42 21 8 1 16 7 18 12 2 6 8 11
14 11 11 0 141 86 184 122 31 26 124 118 165 164 74 83 176 268 185 337 5 36
2 48 -17 70 -13 15 -33 30 -44 32 -76 17 -111 27 -122 37 -7 6 -13 8 -13 4 0
-3 -17 1 -37 9 -21 8 -49 17 -63 19 -14 3 -26 5 -27 7 -2 1 -6 2 -10 3 -29 5
-99 32 -105 41 -12 17 -9 37 4 29 7 -5 19 -9 28 -10 46 -7 87 -17 99 -24 8 -4
27 -4 42 0 15 5 30 6 33 3 15 -16 192 -21 306 -10 30 3 55 6 55 7 0 2 20 6 70
14 76 12 191 48 275 84 19 9 38 15 42 14 3 -1 12 5 18 13 7 8 18 15 24 15 6 0
35 16 65 35 29 19 56 35 61 35 5 0 10 3 12 8 2 4 23 23 48 42 113 85 225 215
268 308 61 133 18 191 -148 199 -41 2 -120 5 -175 8 -55 2 -156 7 -225 10 -69
3 -168 8 -220 9 -52 2 -95 5 -95 6 0 2 -58 5 -327 15 -76 3 -148 9 -160 14
-20 8 -19 9 12 9 19 -1 55 2 81 6 25 4 67 9 95 11 27 2 49 5 49 5 0 1 11 3 25
5 14 1 48 6 75 10 28 4 59 9 70 10 11 2 38 8 60 14 22 5 56 12 75 15 19 3 50
10 69 15 19 6 37 9 39 6 3 -2 13 0 23 5 9 6 35 13 56 16 21 3 45 9 53 14 8 4
40 13 70 19 30 7 73 20 95 28 36 14 69 22 103 25 6 1 12 5 12 9 0 4 12 10 28
14 38 9 200 75 240 97 18 10 39 18 47 18 8 0 15 5 15 10 0 6 5 10 11 10 13 0
145 79 179 107 134 109 193 181 211 256 10 45 10 50 -11 72 -19 20 -29 23 -73
19 -28 -3 -55 -8 -59 -11 -5 -2 -28 -7 -51 -10 -22 -2 -46 -7 -51 -11 -6 -3
-19 -7 -31 -9 -17 -2 -89 -19 -160 -39 -11 -3 -24 -6 -30 -7 -5 -2 -16 -6 -22
-10 -7 -5 -13 -6 -13 -3 0 3 -12 1 -27 -5 -16 -6 -37 -13 -48 -15 -36 -9 -50
-12 -55 -14 -3 -1 -9 -3 -15 -5 -5 -1 -12 -3 -15 -4 -7 -3 -40 -11 -65 -16
-65 -11 -120 -23 -120 -25 0 -2 -25 -8 -65 -16 -52 -9 -65 -12 -65 -14 0 -1
-11 -3 -25 -4 -14 -2 -35 -6 -47 -10 -13 -4 -34 -9 -48 -12 -14 -2 -37 -6 -52
-9 -16 -2 -39 -7 -53 -10 -48 -10 -120 -14 -120 -7 0 6 142 61 175 68 78 16
156 44 167 59 4 6 8 7 8 3 0 -4 25 3 55 17 31 13 58 24 60 25 4 1 49 19 135
57 19 8 56 26 83 39 26 13 47 21 47 17 0 -3 8 1 17 10 10 8 30 18 45 22 15 4
32 13 39 21 6 8 20 14 30 14 11 0 19 4 19 9 0 5 8 11 18 14 9 3 40 19 67 35
28 16 61 35 75 43 14 8 27 16 30 19 3 3 28 21 55 39 28 19 52 37 55 41 3 3 21
17 40 31 39 29 180 167 220 216 14 16 41 52 60 79 19 27 38 50 42 52 4 2 8 9
8 15 0 6 7 18 15 26 22 25 105 193 100 202 -3 4 -1 10 5 14 13 8 -4 40 -25 49
-25 9 -112 -34 -161 -79 -6 -6 -49 -35 -95 -65 -46 -30 -86 -58 -89 -61 -5 -6
-176 -119 -195 -129 -13 -7 -99 -63 -105 -70 -9 -9 -44 -30 -68 -40 -12 -5
-31 -18 -42 -28 -11 -10 -33 -25 -48 -33 -15 -7 -79 -47 -142 -89 -63 -41
-119 -77 -125 -80 -5 -3 -29 -17 -52 -32 -24 -16 -45 -28 -48 -28 -3 0 -34
-14 -70 -31 -36 -17 -70 -29 -75 -27 -6 2 16 22 47 45 32 24 69 53 83 65 14
13 45 40 70 60 25 20 57 47 71 60 15 13 43 36 63 52 109 86 279 256 386 386
44 54 148 209 156 232 3 10 10 18 15 18 6 0 7 4 4 10 -3 6 -1 10 4 10 6 0 10
3 9 8 -1 4 5 21 15 38 9 17 13 34 10 38 -4 3 -1 6 5 6 7 0 11 3 10 8 0 4 2 14
5 22 14 34 47 139 52 166 2 16 8 43 12 59 15 71 -2 135 -36 135 -21 0 -45 -22
-149 -135 -209 -229 -570 -597 -733 -748 -71 -66 -223 -177 -242 -177 -11 0
37 60 96 121 48 50 187 248 187 267 0 7 4 12 9 12 5 0 16 17 26 38 9 20 26 55
37 77 36 68 78 177 72 186 -3 5 -1 9 3 9 5 0 8 15 8 33 -3 49 -3 51 -26 65
-16 10 -24 10 -35 1 -8 -6 -14 -8 -14 -5 0 7 -15 -4 -54 -39 -12 -11 -49 -42
-82 -70 -32 -27 -60 -53 -62 -57 -2 -5 -10 -8 -18 -8 -8 0 -14 -4 -14 -8 0 -5
-75 -69 -167 -142 -243 -194 -251 -200 -258 -200 -3 0 -13 -6 -20 -12 -23 -21
-37 -31 -100 -73 -33 -22 -64 -44 -70 -48 -27 -21 -118 -77 -125 -77 -5 0 -10
-3 -12 -7 -4 -10 -206 -133 -218 -133 -5 0 -13 -6 -17 -13 -4 -6 -28 -22 -53
-35 -25 -12 -70 -36 -100 -53 -30 -18 -80 -45 -110 -62 -30 -16 -73 -40 -95
-52 -22 -12 -114 -59 -205 -104 -91 -46 -172 -87 -180 -92 -8 -5 -24 -13 -35
-18 -49 -21 -155 -71 -214 -100 -36 -17 -70 -31 -78 -31 -7 0 -13 -3 -13 -8 0
-4 -15 -13 -32 -21 -18 -7 -52 -22 -75 -32 -24 -10 -47 -19 -53 -19 -5 0 -10
-5 -10 -11 0 -5 -4 -8 -9 -5 -4 3 -24 -3 -44 -13 -36 -18 -117 -54 -127 -55
-13 -3 -78 -29 -102 -42 -16 -9 -28 -13 -28 -9 0 3 -18 -4 -40 -15 -22 -11
-40 -18 -40 -14 0 4 -6 2 -12 -4 -7 -5 -47 -21 -88 -35 -41 -14 -106 -38 -145
-52 -38 -14 -70 -25 -70 -24 0 0 -13 -5 -29 -11 -16 -6 -36 -12 -45 -14 -9 -2
-23 -6 -31 -9 -28 -10 -174 -56 -260 -81 -142 -41 -324 -98 -335 -104 -5 -4
-14 -7 -20 -7 -22 -1 -180 -57 -194 -68 -8 -7 -17 -11 -20 -10 -6 3 -99 -26
-116 -36 -5 -3 -19 -7 -29 -8 -11 -2 -25 -8 -31 -13 -7 -5 -15 -7 -18 -3 -4 3
-14 0 -23 -8 -9 -7 -21 -14 -28 -15 -7 -1 -32 -11 -56 -22 -50 -23 -70 -19
-71 12 -1 38 -24 91 -39 91 -31 1 -174 -92 -247 -160 -65 -60 -83 -54 -83 28
0 54 -7 57 -80 31 -90 -31 -224 -109 -333 -192 -62 -47 -122 -95 -133 -106
-12 -12 -55 -50 -95 -86 -68 -59 -389 -379 -680 -676 -172 -175 -338 -334
-349 -334 -5 0 -10 -7 -10 -15 0 -8 -3 -15 -7 -15 -5 0 -32 -22 -60 -48 -29
-26 -74 -65 -99 -87 -25 -22 -58 -51 -72 -65 -26 -24 -179 -152 -213 -178 -13
-10 -21 -8 -42 8 l-26 20 -27 -25 c-27 -25 -37 -26 -76 -10 -28 11 -111 -74
-210 -220 -15 -22 -39 -53 -54 -70 -14 -16 -36 -42 -48 -56 -23 -27 -149 -119
-162 -119 -4 0 -15 -6 -23 -14 -9 -8 -46 -31 -83 -51 l-67 -36 -16 25 c-19 29
-44 36 -151 42 -46 2 -101 10 -122 17 -25 9 -47 11 -62 5 -46 -17 -87 -20
-315 -22 -229 -3 -279 -9 -332 -42 -20 -12 -29 -10 -89 22 -37 20 -94 53 -127
75 -32 21 -61 39 -65 39 -12 1 -87 74 -117 115 -17 22 -34 45 -40 51 -5 6 -37
48 -70 95 -69 97 -139 164 -164 153 -38 -15 -48 -14 -75 11 l-28 26 -24 -22
c-26 -25 -16 -30 -116 53 -76 62 -85 70 -111 93 -12 11 -58 52 -102 90 -156
137 -373 344 -534 509 -164 169 -594 599 -646 646 -28 25 -79 70 -115 100 -36
30 -67 57 -70 61 -3 3 -23 18 -45 34 -22 17 -42 33 -45 36 -3 3 -30 22 -60 42
-30 20 -59 40 -65 45 -25 19 -200 94 -231 99 -33 5 -34 4 -34 -23 1 -24 -2
-52 -9 -86 -3 -15 -33 1 -84 46 -83 72 -207 152 -236 151 -14 0 -45 -71 -36
-85 2 -4 -3 -15 -13 -23 -15 -14 -21 -14 -44 -3 -14 8 -66 28 -114 46 -49 18
-98 36 -109 41 -11 4 -40 15 -65 23 -25 8 -79 27 -120 41 -41 15 -82 28 -90
30 -8 2 -41 13 -74 24 -32 11 -62 18 -67 15 -5 -3 -9 0 -9 5 0 6 -11 11 -24
11 -14 0 -27 4 -30 9 -3 5 -18 11 -33 14 -30 5 -258 73 -283 83 -8 4 -22 8
-30 10 -33 7 -400 131 -455 154 -11 4 -33 13 -50 19 -16 6 -43 16 -60 22 -16
7 -33 13 -37 13 -3 1 -10 4 -14 9 -4 4 -16 7 -26 7 -10 0 -18 5 -18 10 0 6 -9
10 -20 10 -11 0 -28 4 -38 9 -25 14 -111 51 -117 51 -2 0 -33 13 -67 29 -35
15 -85 38 -113 51 -27 12 -68 30 -91 41 -22 10 -46 19 -52 19 -7 0 -12 5 -12
10 0 6 -5 10 -10 10 -20 0 -460 216 -640 315 -47 25 -93 49 -102 52 -10 3 -18
10 -18 15 0 5 -4 7 -9 3 -5 -3 -15 0 -23 7 -7 7 -38 26 -68 42 -30 16 -61 34
-69 40 -15 12 -49 32 -71 42 -27 13 -334 205 -398 250 -35 24 -67 44 -72 44
-6 0 -10 3 -10 8 0 4 -17 18 -38 32 -20 14 -39 27 -42 30 -3 3 -30 23 -60 45
-30 22 -57 42 -60 45 -3 3 -25 21 -50 40 -25 19 -47 37 -50 40 -3 3 -39 32
-80 65 -41 33 -79 65 -85 71 -5 6 -35 30 -65 54 -30 24 -79 66 -107 92 -68 63
-109 81 -139 62 -17 -11 -21 -23 -19 -52 3 -46 24 -120 43 -149 8 -13 12 -23
9 -23 -8 0 56 -119 127 -235 77 -126 170 -245 286 -364 14 -14 32 -35 40 -46
15 -20 15 -20 -15 -1 -47 30 -145 107 -190 151 -23 22 -75 69 -115 105 -133
118 -556 549 -721 734 -57 64 -110 118 -130 134 -12 9 -19 9 -33 -1z"/>
</g>
</svg>
